<svg width="718" height="413" viewBox="0 0 718 413" fill="none" xmlns="http://www.w3.org/2000/svg">
<rect width="718.004" height="412.367" fill="#F8F6FE"/>
<g filter="url(#filter0_d_195_7019)">
<rect x="57.8896" y="101.955" width="602.225" height="208.883" rx="11.731" fill="white"/>
<rect x="57.4009" y="101.466" width="603.202" height="209.861" rx="12.2198" stroke="#E7E8E8" stroke-width="0.977586"/>
<rect x="124.059" y="132.673" width="201.509" height="43.9051" fill="#F8F6FE"/>
<rect x="124.059" y="132.673" width="201.509" height="43.9051" stroke="#6226FB" stroke-width="0.7741"/>
<path d="M148.799 163.814C146.816 163.814 145.289 163.302 144.218 162.279C143.163 161.256 142.573 159.902 142.447 158.217H144.454C144.564 159.366 144.958 160.287 145.635 160.98C146.328 161.657 147.382 161.996 148.799 161.996C149.949 161.996 150.885 161.767 151.609 161.311C152.334 160.854 152.696 160.122 152.696 159.115C152.696 158.485 152.523 157.981 152.176 157.603C151.83 157.225 151.365 156.926 150.783 156.706C150.2 156.47 149.563 156.273 148.87 156.116C148.193 155.942 147.508 155.753 146.816 155.549C146.139 155.344 145.509 155.077 144.927 154.746C144.344 154.415 143.88 153.974 143.533 153.423C143.187 152.872 143.014 152.164 143.014 151.298C143.014 150.417 143.25 149.653 143.722 149.008C144.194 148.346 144.856 147.835 145.706 147.473C146.556 147.095 147.532 146.906 148.634 146.906C149.736 146.906 150.704 147.11 151.539 147.52C152.389 147.913 153.066 148.48 153.569 149.22C154.089 149.944 154.388 150.802 154.467 151.794H152.483C152.389 150.865 151.995 150.125 151.302 149.574C150.626 149.008 149.736 148.724 148.634 148.724C147.516 148.724 146.635 148.96 145.989 149.433C145.359 149.889 145.045 150.511 145.045 151.298C145.045 151.928 145.218 152.432 145.564 152.809C145.926 153.172 146.391 153.463 146.957 153.683C147.54 153.888 148.177 154.069 148.87 154.226C149.579 154.368 150.279 154.541 150.972 154.746C151.665 154.935 152.294 155.202 152.861 155.549C153.444 155.879 153.908 156.328 154.254 156.895C154.616 157.462 154.797 158.202 154.797 159.115C154.797 160.122 154.538 160.972 154.018 161.665C153.499 162.358 152.782 162.893 151.869 163.271C150.972 163.633 149.949 163.814 148.799 163.814ZM158.956 163.625V147.095H165.167C166.253 147.095 167.19 147.299 167.977 147.709C168.764 148.118 169.37 148.693 169.795 149.433C170.221 150.157 170.433 151.007 170.433 151.983C170.433 152.943 170.221 153.793 169.795 154.533C169.37 155.273 168.764 155.848 167.977 156.257C167.19 156.667 166.253 156.871 165.167 156.871H160.964V163.625H158.956ZM160.964 155.077H165.143C165.931 155.077 166.552 154.935 167.009 154.651C167.481 154.352 167.82 153.967 168.024 153.494C168.245 153.022 168.355 152.518 168.355 151.983C168.355 151.432 168.245 150.928 168.024 150.472C167.82 149.999 167.481 149.622 167.009 149.338C166.552 149.039 165.931 148.889 165.143 148.889H160.964V155.077ZM174.452 163.625V147.095H180.521C182.158 147.095 183.441 147.504 184.37 148.323C185.315 149.141 185.787 150.267 185.787 151.7C185.787 152.676 185.543 153.502 185.055 154.179C184.583 154.856 183.953 155.383 183.166 155.761C183.811 156.123 184.331 156.627 184.724 157.273C185.118 157.918 185.338 158.666 185.386 159.516L185.669 163.625H183.709L183.426 159.634C183.378 158.831 183.111 158.178 182.623 157.674C182.15 157.155 181.529 156.895 180.757 156.895H176.459V163.625H174.452ZM176.459 155.077H180.521C181.308 155.077 181.93 154.927 182.387 154.628C182.859 154.329 183.197 153.943 183.402 153.471C183.622 152.983 183.733 152.471 183.733 151.936C183.733 151.385 183.622 150.881 183.402 150.424C183.197 149.968 182.859 149.598 182.387 149.315C181.93 149.031 181.308 148.889 180.521 148.889H176.459V155.077ZM190.247 163.625V161.807H193.176V148.913H190.247V147.095H198.111V148.913H195.207V161.807H198.111V163.625H190.247ZM202.927 163.625V147.095H205.217L212.869 160.343V147.095H214.852V163.625H212.562L204.934 150.401V163.625H202.927ZM225.693 163.814C224.387 163.814 223.206 163.483 222.151 162.822C221.112 162.145 220.286 161.177 219.672 159.918C219.073 158.658 218.774 157.131 218.774 155.336C218.774 153.542 219.081 152.022 219.695 150.779C220.325 149.519 221.183 148.559 222.269 147.898C223.371 147.236 224.623 146.906 226.024 146.906C227.22 146.906 228.267 147.126 229.165 147.567C230.062 148.008 230.786 148.63 231.337 149.433C231.904 150.22 232.25 151.149 232.376 152.219H230.275C230.101 151.149 229.645 150.298 228.905 149.669C228.181 149.039 227.22 148.724 226.024 148.724C224.45 148.724 223.19 149.307 222.246 150.472C221.301 151.637 220.829 153.274 220.829 155.383C220.829 157.462 221.293 159.091 222.222 160.272C223.151 161.437 224.387 162.019 225.93 162.019C226.78 162.019 227.535 161.854 228.197 161.523C228.873 161.177 229.401 160.72 229.779 160.154C230.172 159.587 230.369 158.965 230.369 158.288C230.369 157.344 229.928 156.871 229.047 156.871H226.024V155.124H229.495C230.393 155.124 231.093 155.376 231.597 155.879C232.101 156.367 232.353 157.06 232.353 157.957V163.625H230.487V161.216C230.314 161.578 230.015 161.964 229.59 162.373C229.18 162.767 228.653 163.105 228.008 163.389C227.362 163.672 226.591 163.814 225.693 163.814ZM248.657 163.625V147.095H254.537C256.096 147.095 257.324 147.465 258.221 148.205C259.118 148.929 259.567 149.897 259.567 151.109C259.567 151.991 259.362 152.723 258.953 153.305C258.544 153.872 258.016 154.297 257.371 154.581C258.237 154.864 258.945 155.352 259.496 156.045C260.047 156.722 260.323 157.643 260.323 158.808C260.323 160.287 259.843 161.46 258.882 162.326C257.938 163.192 256.615 163.625 254.915 163.625H248.657ZM250.664 161.807H254.561C255.773 161.807 256.694 161.547 257.324 161.027C257.969 160.508 258.292 159.76 258.292 158.784C258.292 157.792 257.969 157.037 257.324 156.517C256.694 155.997 255.773 155.738 254.561 155.738H250.664V161.807ZM250.664 153.943H254.466C255.474 153.943 256.237 153.73 256.757 153.305C257.292 152.88 257.56 152.243 257.56 151.393C257.56 150.542 257.292 149.913 256.757 149.503C256.237 149.078 255.482 148.866 254.49 148.866H250.664V153.943ZM270.641 163.814C269.24 163.814 268.004 163.452 266.933 162.728C265.878 162.003 265.052 161.012 264.454 159.752C263.855 158.477 263.556 157.013 263.556 155.36C263.556 153.707 263.855 152.251 264.454 150.991C265.052 149.716 265.878 148.716 266.933 147.992C268.004 147.268 269.24 146.906 270.641 146.906C271.585 146.906 272.396 147.048 273.073 147.331C273.766 147.599 274.348 147.937 274.82 148.346C275.309 148.756 275.726 149.165 276.072 149.574C276.434 149.984 276.757 150.33 277.04 150.613C277.324 150.881 277.607 151.015 277.89 151.015C278.174 151.015 278.457 150.881 278.741 150.613C279.024 150.33 279.339 149.984 279.685 149.574C280.047 149.165 280.464 148.756 280.937 148.346C281.425 147.937 282.007 147.599 282.684 147.331C283.377 147.048 284.196 146.906 285.14 146.906C286.541 146.906 287.769 147.268 288.824 147.992C289.895 148.716 290.729 149.716 291.327 150.991C291.925 152.251 292.224 153.707 292.224 155.36C292.224 157.013 291.925 158.477 291.327 159.752C290.729 161.012 289.895 162.003 288.824 162.728C287.769 163.452 286.541 163.814 285.14 163.814C284.196 163.814 283.377 163.68 282.684 163.412C282.007 163.129 281.425 162.783 280.937 162.373C280.464 161.964 280.047 161.555 279.685 161.145C279.339 160.736 279.024 160.398 278.741 160.13C278.457 159.847 278.174 159.705 277.89 159.705C277.607 159.705 277.316 159.847 277.017 160.13C276.733 160.398 276.418 160.736 276.072 161.145C275.726 161.555 275.309 161.964 274.82 162.373C274.332 162.783 273.75 163.129 273.073 163.412C272.396 163.68 271.585 163.814 270.641 163.814ZM270.641 161.996C271.459 161.996 272.152 161.846 272.719 161.547C273.301 161.248 273.797 160.878 274.207 160.437C274.632 159.996 275.025 159.555 275.387 159.115C275.749 158.674 276.127 158.304 276.521 158.005C276.914 157.706 277.371 157.556 277.89 157.556C278.41 157.556 278.859 157.706 279.236 158.005C279.63 158.304 280.008 158.674 280.37 159.115C280.732 159.555 281.126 159.996 281.551 160.437C281.976 160.878 282.472 161.248 283.038 161.547C283.621 161.846 284.321 161.996 285.14 161.996C286.132 161.996 287.006 161.712 287.761 161.145C288.517 160.579 289.099 159.799 289.509 158.808C289.934 157.8 290.146 156.651 290.146 155.36C290.146 154.069 289.934 152.928 289.509 151.936C289.084 150.928 288.493 150.141 287.738 149.574C286.998 149.008 286.124 148.724 285.116 148.724C284.298 148.724 283.605 148.874 283.038 149.173C282.472 149.472 281.976 149.842 281.551 150.283C281.126 150.724 280.732 151.164 280.37 151.605C280.024 152.046 279.654 152.416 279.26 152.715C278.866 153.014 278.41 153.164 277.89 153.164C277.371 153.164 276.914 153.014 276.521 152.715C276.127 152.416 275.749 152.046 275.387 151.605C275.025 151.164 274.632 150.724 274.207 150.283C273.797 149.842 273.301 149.472 272.719 149.173C272.152 148.874 271.459 148.724 270.641 148.724C269.649 148.724 268.775 149.008 268.019 149.574C267.28 150.141 266.697 150.928 266.272 151.936C265.847 152.928 265.634 154.069 265.634 155.36C265.634 156.651 265.847 157.8 266.272 158.808C266.697 159.799 267.28 160.579 268.019 161.145C268.775 161.712 269.649 161.996 270.641 161.996ZM299.97 163.625V148.913H294.727V147.095H307.243V148.913H302.001V163.625H299.97Z" fill="#6226FB"/>
<rect x="333.435" y="132.673" width="260.509" height="43.9051" fill="#F8F6FE"/>
<rect x="333.435" y="132.673" width="260.509" height="43.9051" stroke="#6226FB" stroke-width="0.7741"/>
<path d="M351.256 163.625L357.325 147.095H359.238L365.283 163.625H363.205L361.647 159.162H354.893L353.311 163.625H351.256ZM355.53 157.367H361.009L358.293 149.598L355.53 157.367ZM368.84 163.625V147.095H375.05C376.137 147.095 377.073 147.299 377.86 147.709C378.648 148.118 379.254 148.693 379.679 149.433C380.104 150.157 380.316 151.007 380.316 151.983C380.316 152.943 380.104 153.793 379.679 154.533C379.254 155.273 378.648 155.848 377.86 156.257C377.073 156.667 376.137 156.871 375.05 156.871H370.847V163.625H368.84ZM370.847 155.077H375.027C375.814 155.077 376.436 154.935 376.892 154.651C377.365 154.352 377.703 153.967 377.908 153.494C378.128 153.022 378.238 152.518 378.238 151.983C378.238 151.432 378.128 150.928 377.908 150.472C377.703 149.999 377.365 149.622 376.892 149.338C376.436 149.039 375.814 148.889 375.027 148.889H370.847V155.077ZM382.295 163.625L388.364 147.095H390.276L396.322 163.625H394.244L392.685 159.162H385.931L384.349 163.625H382.295ZM386.569 157.367H392.048L389.332 149.598L386.569 157.367ZM405.906 163.814C404.489 163.814 403.23 163.491 402.128 162.846C401.041 162.185 400.183 161.224 399.554 159.965C398.94 158.705 398.633 157.17 398.633 155.36C398.633 153.549 398.94 152.014 399.554 150.755C400.183 149.496 401.041 148.543 402.128 147.898C403.23 147.236 404.489 146.906 405.906 146.906C407.638 146.906 409.055 147.394 410.157 148.37C411.274 149.33 411.951 150.621 412.188 152.243H410.062C409.92 151.188 409.48 150.338 408.74 149.692C408 149.047 407.047 148.724 405.882 148.724C404.308 148.724 403.049 149.307 402.104 150.472C401.175 151.637 400.711 153.266 400.711 155.36C400.711 157.454 401.175 159.083 402.104 160.248C403.049 161.413 404.308 161.996 405.882 161.996C407.047 161.996 408.008 161.673 408.763 161.027C409.535 160.382 409.976 159.532 410.086 158.477H412.164C412.038 159.548 411.692 160.484 411.125 161.287C410.574 162.09 409.85 162.712 408.952 163.153C408.071 163.594 407.055 163.814 405.906 163.814ZM426.002 163.625V155.997H418.115V163.625H416.108V147.095H418.115V154.179H426.002V147.095H428.033V163.625H426.002ZM433.136 163.625V147.095H443.574V148.913H435.167V154.179H442.039V155.997H435.167V161.807H443.834V163.625H433.136ZM466.599 163.814C465.182 163.814 463.923 163.491 462.821 162.846C461.735 162.185 460.877 161.224 460.247 159.965C459.633 158.705 459.326 157.17 459.326 155.36C459.326 153.549 459.633 152.014 460.247 150.755C460.877 149.496 461.735 148.543 462.821 147.898C463.923 147.236 465.182 146.906 466.599 146.906C468.331 146.906 469.748 147.394 470.85 148.37C471.968 149.33 472.645 150.621 472.881 152.243H470.755C470.614 151.188 470.173 150.338 469.433 149.692C468.693 149.047 467.741 148.724 466.576 148.724C465.001 148.724 463.742 149.307 462.797 150.472C461.869 151.637 461.404 153.266 461.404 155.36C461.404 157.454 461.869 159.083 462.797 160.248C463.742 161.413 465.001 161.996 466.576 161.996C467.741 161.996 468.701 161.673 469.457 161.027C470.228 160.382 470.669 159.532 470.779 158.477H472.857C472.731 159.548 472.385 160.484 471.818 161.287C471.267 162.09 470.543 162.712 469.646 163.153C468.764 163.594 467.749 163.814 466.599 163.814ZM483.13 163.814C481.729 163.814 480.493 163.46 479.422 162.751C478.352 162.043 477.518 161.059 476.919 159.799C476.321 158.524 476.022 157.044 476.022 155.36C476.022 153.675 476.321 152.203 476.919 150.944C477.518 149.669 478.352 148.677 479.422 147.968C480.493 147.26 481.729 146.906 483.13 146.906C484.515 146.906 485.728 147.26 486.767 147.968C487.821 148.677 488.64 149.669 489.223 150.944C489.805 152.203 490.096 153.675 490.096 155.36C490.096 157.044 489.805 158.524 489.223 159.799C488.64 161.059 487.821 162.043 486.767 162.751C485.728 163.46 484.515 163.814 483.13 163.814ZM483.106 161.996C484.082 161.996 484.94 161.72 485.68 161.169C486.42 160.602 486.995 159.823 487.404 158.831C487.814 157.839 488.018 156.682 488.018 155.36C488.018 154.037 487.814 152.88 487.404 151.889C486.995 150.881 486.42 150.102 485.68 149.551C484.94 149 484.082 148.724 483.106 148.724C482.115 148.724 481.241 149 480.485 149.551C479.745 150.102 479.163 150.881 478.738 151.889C478.313 152.88 478.1 154.037 478.1 155.36C478.1 156.682 478.313 157.839 478.738 158.831C479.163 159.823 479.745 160.602 480.485 161.169C481.241 161.72 482.115 161.996 483.106 161.996ZM493.885 163.625V147.095H496.459L500.663 160.461L504.866 147.095H507.44V163.625H505.527V150.731L501.489 163.625H499.836L495.798 150.731V163.625H493.885ZM511.826 163.625V147.095H514.4L518.603 160.461L522.807 147.095H525.381V163.625H523.468V150.731L519.43 163.625H517.777L513.739 150.731V163.625H511.826ZM536.237 163.814C534.836 163.814 533.6 163.46 532.53 162.751C531.459 162.043 530.625 161.059 530.026 159.799C529.428 158.524 529.129 157.044 529.129 155.36C529.129 153.675 529.428 152.203 530.026 150.944C530.625 149.669 531.459 148.677 532.53 147.968C533.6 147.26 534.836 146.906 536.237 146.906C537.622 146.906 538.835 147.26 539.874 147.968C540.928 148.677 541.747 149.669 542.33 150.944C542.912 152.203 543.203 153.675 543.203 155.36C543.203 157.044 542.912 158.524 542.33 159.799C541.747 161.059 540.928 162.043 539.874 162.751C538.835 163.46 537.622 163.814 536.237 163.814ZM536.213 161.996C537.189 161.996 538.047 161.72 538.787 161.169C539.527 160.602 540.102 159.823 540.511 158.831C540.921 157.839 541.125 156.682 541.125 155.36C541.125 154.037 540.921 152.88 540.511 151.889C540.102 150.881 539.527 150.102 538.787 149.551C538.047 149 537.189 148.724 536.213 148.724C535.222 148.724 534.348 149 533.592 149.551C532.852 150.102 532.27 150.881 531.845 151.889C531.42 152.88 531.207 154.037 531.207 155.36C531.207 156.682 531.42 157.839 531.845 158.831C532.27 159.823 532.852 160.602 533.592 161.169C534.348 161.72 535.222 161.996 536.213 161.996ZM547.134 163.625V147.095H549.425L557.076 160.343V147.095H559.059V163.625H556.769L549.141 150.401V163.625H547.134ZM569.357 163.814C567.374 163.814 565.847 163.302 564.776 162.279C563.721 161.256 563.131 159.902 563.005 158.217H565.012C565.123 159.366 565.516 160.287 566.193 160.98C566.886 161.657 567.941 161.996 569.357 161.996C570.507 161.996 571.443 161.767 572.168 161.311C572.892 160.854 573.254 160.122 573.254 159.115C573.254 158.485 573.081 157.981 572.734 157.603C572.388 157.225 571.924 156.926 571.341 156.706C570.759 156.47 570.121 156.273 569.428 156.116C568.751 155.942 568.067 155.753 567.374 155.549C566.697 155.344 566.067 155.077 565.485 154.746C564.902 154.415 564.438 153.974 564.091 153.423C563.745 152.872 563.572 152.164 563.572 151.298C563.572 150.417 563.808 149.653 564.28 149.008C564.753 148.346 565.414 147.835 566.264 147.473C567.114 147.095 568.09 146.906 569.192 146.906C570.294 146.906 571.262 147.11 572.097 147.52C572.947 147.913 573.624 148.48 574.128 149.22C574.647 149.944 574.946 150.802 575.025 151.794H573.041C572.947 150.865 572.553 150.125 571.861 149.574C571.184 149.008 570.294 148.724 569.192 148.724C568.074 148.724 567.193 148.96 566.547 149.433C565.918 149.889 565.603 150.511 565.603 151.298C565.603 151.928 565.776 152.432 566.122 152.809C566.484 153.172 566.949 153.463 567.516 153.683C568.098 153.888 568.736 154.069 569.428 154.226C570.137 154.368 570.837 154.541 571.53 154.746C572.223 154.935 572.852 155.202 573.419 155.549C574.002 155.879 574.466 156.328 574.812 156.895C575.175 157.462 575.356 158.202 575.356 159.115C575.356 160.122 575.096 160.972 574.576 161.665C574.057 162.358 573.34 162.893 572.427 163.271C571.53 163.633 570.507 163.814 569.357 163.814Z" fill="#6226FB"/>
<rect x="119.372" y="184.444" width="221.509" height="43.9051" fill="#F8F6FE"/>
<rect x="119.372" y="184.444" width="221.509" height="43.9051" stroke="#6226FB" stroke-width="0.7741"/>
<path d="M144.655 215.585C143.348 215.585 142.168 215.255 141.113 214.594C140.074 213.917 139.247 212.948 138.633 211.689C138.035 210.43 137.736 208.902 137.736 207.108C137.736 205.313 138.043 203.794 138.657 202.55C139.287 201.291 140.145 200.33 141.231 199.669C142.333 199.008 143.584 198.677 144.986 198.677C146.182 198.677 147.229 198.898 148.126 199.339C149.024 199.779 149.748 200.401 150.299 201.204C150.866 201.991 151.212 202.92 151.338 203.991H149.236C149.063 202.92 148.606 202.07 147.867 201.44C147.142 200.811 146.182 200.496 144.986 200.496C143.411 200.496 142.152 201.078 141.207 202.243C140.263 203.408 139.79 205.045 139.79 207.155C139.79 209.233 140.255 210.862 141.184 212.043C142.112 213.208 143.348 213.791 144.891 213.791C145.741 213.791 146.497 213.625 147.158 213.295C147.835 212.948 148.362 212.492 148.74 211.925C149.134 211.358 149.331 210.737 149.331 210.06C149.331 209.115 148.89 208.643 148.008 208.643H144.986V206.895H148.457C149.354 206.895 150.055 207.147 150.559 207.651C151.062 208.139 151.314 208.832 151.314 209.729V215.396H149.449V212.988C149.276 213.35 148.976 213.736 148.551 214.145C148.142 214.538 147.615 214.877 146.969 215.16C146.324 215.444 145.552 215.585 144.655 215.585ZM161.7 215.585C160.299 215.585 159.063 215.223 157.993 214.499C156.938 213.775 156.111 212.783 155.513 211.524C154.915 210.248 154.616 208.784 154.616 207.131C154.616 205.478 154.915 204.022 155.513 202.763C156.111 201.487 156.938 200.488 157.993 199.764C159.063 199.039 160.299 198.677 161.7 198.677C162.645 198.677 163.455 198.819 164.132 199.102C164.825 199.37 165.408 199.708 165.88 200.118C166.368 200.527 166.785 200.936 167.131 201.346C167.494 201.755 167.816 202.101 168.1 202.385C168.383 202.652 168.666 202.786 168.95 202.786C169.233 202.786 169.517 202.652 169.8 202.385C170.083 202.101 170.398 201.755 170.745 201.346C171.107 200.936 171.524 200.527 171.996 200.118C172.484 199.708 173.067 199.37 173.744 199.102C174.436 198.819 175.255 198.677 176.199 198.677C177.601 198.677 178.829 199.039 179.883 199.764C180.954 200.488 181.788 201.487 182.387 202.763C182.985 204.022 183.284 205.478 183.284 207.131C183.284 208.784 182.985 210.248 182.387 211.524C181.788 212.783 180.954 213.775 179.883 214.499C178.829 215.223 177.601 215.585 176.199 215.585C175.255 215.585 174.436 215.452 173.744 215.184C173.067 214.901 172.484 214.554 171.996 214.145C171.524 213.736 171.107 213.326 170.745 212.917C170.398 212.508 170.083 212.169 169.8 211.902C169.517 211.618 169.233 211.476 168.95 211.476C168.666 211.476 168.375 211.618 168.076 211.902C167.793 212.169 167.478 212.508 167.131 212.917C166.785 213.326 166.368 213.736 165.88 214.145C165.392 214.554 164.809 214.901 164.132 215.184C163.455 215.452 162.645 215.585 161.7 215.585ZM161.7 213.767C162.519 213.767 163.211 213.618 163.778 213.318C164.361 213.019 164.857 212.649 165.266 212.209C165.691 211.768 166.085 211.327 166.447 210.886C166.809 210.445 167.187 210.075 167.58 209.776C167.974 209.477 168.43 209.328 168.95 209.328C169.469 209.328 169.918 209.477 170.296 209.776C170.689 210.075 171.067 210.445 171.429 210.886C171.791 211.327 172.185 211.768 172.61 212.209C173.035 212.649 173.531 213.019 174.098 213.318C174.68 213.618 175.381 213.767 176.199 213.767C177.191 213.767 178.065 213.484 178.821 212.917C179.576 212.35 180.159 211.571 180.568 210.579C180.993 209.572 181.206 208.422 181.206 207.131C181.206 205.84 180.993 204.699 180.568 203.707C180.143 202.7 179.553 201.913 178.797 201.346C178.057 200.779 177.183 200.496 176.176 200.496C175.357 200.496 174.665 200.645 174.098 200.944C173.531 201.243 173.035 201.613 172.61 202.054C172.185 202.495 171.791 202.936 171.429 203.377C171.083 203.817 170.713 204.187 170.319 204.487C169.926 204.786 169.469 204.935 168.95 204.935C168.43 204.935 167.974 204.786 167.58 204.487C167.187 204.187 166.809 203.817 166.447 203.377C166.085 202.936 165.691 202.495 165.266 202.054C164.857 201.613 164.361 201.243 163.778 200.944C163.211 200.645 162.519 200.496 161.7 200.496C160.708 200.496 159.835 200.779 159.079 201.346C158.339 201.913 157.756 202.7 157.331 203.707C156.906 204.699 156.694 205.84 156.694 207.131C156.694 208.422 156.906 209.572 157.331 210.579C157.756 211.571 158.339 212.35 159.079 212.917C159.835 213.484 160.708 213.767 161.7 213.767ZM193.358 215.585C192.052 215.585 190.871 215.255 189.816 214.594C188.777 213.917 187.951 212.948 187.337 211.689C186.738 210.43 186.439 208.902 186.439 207.108C186.439 205.313 186.746 203.794 187.36 202.55C187.99 201.291 188.848 200.33 189.934 199.669C191.036 199.008 192.288 198.677 193.689 198.677C194.885 198.677 195.932 198.898 196.83 199.339C197.727 199.779 198.451 200.401 199.002 201.204C199.569 201.991 199.915 202.92 200.041 203.991H197.94C197.766 202.92 197.31 202.07 196.57 201.44C195.846 200.811 194.885 200.496 193.689 200.496C192.115 200.496 190.855 201.078 189.911 202.243C188.966 203.408 188.494 205.045 188.494 207.155C188.494 209.233 188.958 210.862 189.887 212.043C190.816 213.208 192.052 213.791 193.594 213.791C194.445 213.791 195.2 213.625 195.861 213.295C196.538 212.948 197.066 212.492 197.444 211.925C197.837 211.358 198.034 210.737 198.034 210.06C198.034 209.115 197.593 208.643 196.712 208.643H193.689V206.895H197.16C198.058 206.895 198.758 207.147 199.262 207.651C199.766 208.139 200.018 208.832 200.018 209.729V215.396H198.152V212.988C197.979 213.35 197.68 213.736 197.255 214.145C196.845 214.538 196.318 214.877 195.673 215.16C195.027 215.444 194.256 215.585 193.358 215.585ZM204.807 215.396V198.866H206.838V213.578H215.079V215.396H204.807ZM219.396 215.396V198.866H229.834V200.685H221.427V205.951H228.299V207.769H221.427V213.578H230.094V215.396H219.396ZM252.553 215.585C251.246 215.585 250.065 215.255 249.01 214.594C247.971 213.917 247.145 212.948 246.531 211.689C245.933 210.43 245.634 208.902 245.634 207.108C245.634 205.313 245.941 203.794 246.555 202.55C247.184 201.291 248.042 200.33 249.129 199.669C250.231 199.008 251.482 198.677 252.883 198.677C254.08 198.677 255.127 198.898 256.024 199.339C256.921 199.779 257.646 200.401 258.197 201.204C258.763 201.991 259.11 202.92 259.236 203.991H257.134C256.961 202.92 256.504 202.07 255.764 201.44C255.04 200.811 254.08 200.496 252.883 200.496C251.309 200.496 250.049 201.078 249.105 202.243C248.16 203.408 247.688 205.045 247.688 207.155C247.688 209.233 248.152 210.862 249.081 212.043C250.01 213.208 251.246 213.791 252.789 213.791C253.639 213.791 254.395 213.625 255.056 213.295C255.733 212.948 256.26 212.492 256.638 211.925C257.032 211.358 257.228 210.737 257.228 210.06C257.228 209.115 256.788 208.643 255.906 208.643H252.883V206.895H256.355C257.252 206.895 257.953 207.147 258.456 207.651C258.96 208.139 259.212 208.832 259.212 209.729V215.396H257.346V212.988C257.173 213.35 256.874 213.736 256.449 214.145C256.04 214.538 255.512 214.877 254.867 215.16C254.221 215.444 253.45 215.585 252.553 215.585ZM269.102 215.585C267.89 215.585 266.835 215.349 265.938 214.877C265.056 214.405 264.371 213.728 263.883 212.846C263.395 211.964 263.151 210.925 263.151 209.729V198.866H265.135V209.823C265.135 211.036 265.497 211.996 266.221 212.704C266.945 213.413 267.905 213.767 269.102 213.767C270.33 213.767 271.298 213.413 272.006 212.704C272.731 211.996 273.093 211.036 273.093 209.823V198.866H275.076V209.729C275.076 210.925 274.832 211.964 274.344 212.846C273.856 213.728 273.164 214.405 272.266 214.877C271.369 215.349 270.314 215.585 269.102 215.585ZM278.158 215.396L284.227 198.866H286.14L292.185 215.396H290.107L288.549 210.933H281.795L280.213 215.396H278.158ZM282.433 209.139H287.911L285.195 201.369L282.433 209.139ZM299.559 215.396L293.749 198.866H295.804L300.574 212.87L305.344 198.866H307.399L301.613 215.396H299.559ZM308.989 215.396L315.058 198.866H316.971L323.016 215.396H320.938L319.38 210.933H312.626L311.044 215.396H308.989ZM313.263 209.139H318.742L316.026 201.369L313.263 209.139Z" fill="#6226FB"/>
<rect x="348.747" y="184.444" width="144.509" height="43.9051" fill="#F8F6FE"/>
<rect x="348.747" y="184.444" width="144.509" height="43.9051" stroke="#6226FB" stroke-width="0.7741"/>
<path d="M367.583 215.396V213.578H371.692C372.306 213.578 372.786 213.381 373.133 212.988C373.479 212.578 373.652 212.012 373.652 211.288V198.866H375.683V211.358C375.683 212.634 375.345 213.625 374.668 214.334C374.006 215.042 373.093 215.396 371.928 215.396H367.583ZM379.458 215.396L385.527 198.866H387.44L393.485 215.396H391.407L389.848 210.933H383.095L381.512 215.396H379.458ZM383.732 209.139H389.211L386.495 201.369L383.732 209.139ZM403.069 215.585C401.652 215.585 400.393 215.263 399.291 214.617C398.205 213.956 397.347 212.996 396.717 211.736C396.103 210.477 395.796 208.942 395.796 207.131C395.796 205.321 396.103 203.786 396.717 202.527C397.347 201.267 398.205 200.315 399.291 199.669C400.393 199.008 401.652 198.677 403.069 198.677C404.801 198.677 406.218 199.165 407.32 200.141C408.438 201.102 409.115 202.393 409.351 204.014H407.225C407.084 202.959 406.643 202.109 405.903 201.464C405.163 200.818 404.211 200.496 403.046 200.496C401.471 200.496 400.212 201.078 399.267 202.243C398.339 203.408 397.874 205.038 397.874 207.131C397.874 209.225 398.339 210.855 399.267 212.02C400.212 213.185 401.471 213.767 403.046 213.767C404.211 213.767 405.171 213.444 405.927 212.799C406.698 212.153 407.139 211.303 407.249 210.248H409.327C409.201 211.319 408.855 212.256 408.288 213.059C407.737 213.862 407.013 214.483 406.116 214.924C405.234 215.365 404.219 215.585 403.069 215.585ZM415.467 215.396H413.413V198.866H415.467V206.73L422.67 198.866H425.244L419.175 205.455L425.669 215.396H423.331L417.782 206.966L415.467 209.469V215.396ZM434.457 215.585C432.473 215.585 430.946 215.074 429.876 214.05C428.821 213.027 428.23 211.673 428.105 209.989H430.112C430.222 211.138 430.616 212.059 431.292 212.752C431.985 213.429 433.04 213.767 434.457 213.767C435.606 213.767 436.543 213.539 437.267 213.082C437.991 212.626 438.353 211.894 438.353 210.886C438.353 210.256 438.18 209.753 437.834 209.375C437.487 208.997 437.023 208.698 436.44 208.477C435.858 208.241 435.22 208.044 434.528 207.887C433.851 207.714 433.166 207.525 432.473 207.32C431.796 207.116 431.167 206.848 430.584 206.517C430.002 206.187 429.537 205.746 429.191 205.195C428.844 204.644 428.671 203.936 428.671 203.07C428.671 202.188 428.907 201.424 429.38 200.779C429.852 200.118 430.513 199.606 431.363 199.244C432.213 198.866 433.19 198.677 434.292 198.677C435.394 198.677 436.362 198.882 437.196 199.291C438.046 199.685 438.723 200.252 439.227 200.992C439.747 201.716 440.046 202.574 440.124 203.566H438.141C438.046 202.637 437.653 201.897 436.96 201.346C436.283 200.779 435.394 200.496 434.292 200.496C433.174 200.496 432.292 200.732 431.647 201.204C431.017 201.661 430.702 202.282 430.702 203.07C430.702 203.699 430.875 204.203 431.222 204.581C431.584 204.943 432.048 205.234 432.615 205.455C433.197 205.659 433.835 205.84 434.528 205.998C435.236 206.14 435.937 206.313 436.629 206.517C437.322 206.706 437.952 206.974 438.519 207.32C439.101 207.651 439.565 208.1 439.912 208.666C440.274 209.233 440.455 209.973 440.455 210.886C440.455 211.894 440.195 212.744 439.676 213.436C439.156 214.129 438.44 214.664 437.527 215.042C436.629 215.404 435.606 215.585 434.457 215.585ZM450.754 215.585C449.353 215.585 448.117 215.231 447.046 214.523C445.976 213.814 445.141 212.83 444.543 211.571C443.945 210.296 443.646 208.816 443.646 207.131C443.646 205.447 443.945 203.975 444.543 202.715C445.141 201.44 445.976 200.448 447.046 199.74C448.117 199.032 449.353 198.677 450.754 198.677C452.139 198.677 453.351 199.032 454.39 199.74C455.445 200.448 456.264 201.44 456.846 202.715C457.429 203.975 457.72 205.447 457.72 207.131C457.72 208.816 457.429 210.296 456.846 211.571C456.264 212.83 455.445 213.814 454.39 214.523C453.351 215.231 452.139 215.585 450.754 215.585ZM450.73 213.767C451.706 213.767 452.564 213.492 453.304 212.941C454.044 212.374 454.619 211.595 455.028 210.603C455.437 209.611 455.642 208.454 455.642 207.131C455.642 205.809 455.437 204.652 455.028 203.66C454.619 202.652 454.044 201.873 453.304 201.322C452.564 200.771 451.706 200.496 450.73 200.496C449.738 200.496 448.865 200.771 448.109 201.322C447.369 201.873 446.786 202.652 446.361 203.66C445.936 204.652 445.724 205.809 445.724 207.131C445.724 208.454 445.936 209.611 446.361 210.603C446.786 211.595 447.369 212.374 448.109 212.941C448.865 213.492 449.738 213.767 450.73 213.767ZM461.651 215.396V198.866H463.941L471.593 212.114V198.866H473.576V215.396H471.286L463.658 202.172V215.396H461.651Z" fill="#6226FB"/>
<rect x="501.123" y="184.444" width="97.5093" height="43.9051" fill="#F8F6FE"/>
<rect x="501.123" y="184.444" width="97.5093" height="43.9051" stroke="#6226FB" stroke-width="0.7741"/>
<path d="M518.944 215.396L525.013 198.866H526.925L532.971 215.396H530.893L529.334 210.933H522.58L520.998 215.396H518.944ZM523.218 209.139H528.697L525.981 201.369L523.218 209.139ZM538.534 215.396H536.48V198.866H538.534V206.73L545.737 198.866H548.311L542.242 205.455L548.736 215.396H546.398L540.849 206.966L538.534 209.469V215.396ZM554.33 215.396H552.276V198.866H554.33V206.73L561.533 198.866H564.107L558.038 205.455L564.532 215.396H562.194L556.645 206.966L554.33 209.469V215.396ZM566.631 215.396L572.7 198.866H574.613L580.659 215.396H578.58L577.022 210.933H570.268L568.686 215.396H566.631ZM570.906 209.139H576.384L573.669 201.369L570.906 209.139Z" fill="#6226FB"/>
<rect x="105.684" y="236.215" width="113.509" height="43.9051" fill="#F8F6FE"/>
<rect x="105.684" y="236.215" width="113.509" height="43.9051" stroke="#6226FB" stroke-width="0.7741"/>
<path d="M130.424 267.357C128.441 267.357 126.914 266.845 125.843 265.822C124.788 264.799 124.198 263.445 124.072 261.76H126.079C126.189 262.909 126.583 263.83 127.26 264.523C127.953 265.2 129.007 265.539 130.424 265.539C131.574 265.539 132.51 265.31 133.234 264.854C133.959 264.397 134.321 263.665 134.321 262.658C134.321 262.028 134.148 261.524 133.801 261.146C133.455 260.768 132.99 260.469 132.408 260.249C131.825 260.013 131.188 259.816 130.495 259.659C129.818 259.485 129.133 259.296 128.441 259.092C127.764 258.887 127.134 258.619 126.552 258.289C125.969 257.958 125.505 257.517 125.158 256.966C124.812 256.415 124.639 255.707 124.639 254.841C124.639 253.96 124.875 253.196 125.347 252.551C125.819 251.889 126.481 251.378 127.331 251.016C128.181 250.638 129.157 250.449 130.259 250.449C131.361 250.449 132.329 250.653 133.164 251.063C134.014 251.456 134.691 252.023 135.194 252.763C135.714 253.487 136.013 254.345 136.092 255.337H134.108C134.014 254.408 133.62 253.668 132.927 253.117C132.251 252.551 131.361 252.267 130.259 252.267C129.141 252.267 128.26 252.503 127.614 252.976C126.984 253.432 126.67 254.054 126.67 254.841C126.67 255.471 126.843 255.975 127.189 256.352C127.551 256.715 128.016 257.006 128.582 257.226C129.165 257.431 129.802 257.612 130.495 257.769C131.204 257.911 131.904 258.084 132.597 258.289C133.29 258.478 133.919 258.745 134.486 259.092C135.069 259.422 135.533 259.871 135.879 260.438C136.241 261.005 136.422 261.744 136.422 262.658C136.422 263.665 136.163 264.515 135.643 265.208C135.124 265.901 134.407 266.436 133.494 266.814C132.597 267.176 131.574 267.357 130.424 267.357ZM146.863 267.357C145.446 267.357 144.187 267.034 143.085 266.389C141.998 265.727 141.14 264.767 140.511 263.508C139.897 262.248 139.59 260.713 139.59 258.903C139.59 257.092 139.897 255.557 140.511 254.298C141.14 253.039 141.998 252.086 143.085 251.441C144.187 250.779 145.446 250.449 146.863 250.449C148.595 250.449 150.011 250.937 151.114 251.913C152.231 252.873 152.908 254.164 153.144 255.786H151.019C150.877 254.731 150.437 253.881 149.697 253.235C148.957 252.59 148.004 252.267 146.839 252.267C145.265 252.267 144.006 252.85 143.061 254.015C142.132 255.18 141.668 256.809 141.668 258.903C141.668 260.997 142.132 262.626 143.061 263.791C144.006 264.956 145.265 265.539 146.839 265.539C148.004 265.539 148.965 265.216 149.72 264.57C150.492 263.925 150.932 263.075 151.043 262.02H153.121C152.995 263.091 152.648 264.027 152.082 264.83C151.531 265.633 150.807 266.255 149.909 266.696C149.028 267.136 148.012 267.357 146.863 267.357ZM155.558 267.168L161.627 250.638H163.54L169.586 267.168H167.507L165.949 262.705H159.195L157.613 267.168H155.558ZM159.833 260.91H165.311L162.596 253.141L159.833 260.91ZM173.685 267.168V250.638H175.716V265.35H183.957V267.168H173.685ZM186.551 267.168L192.62 250.638H194.533L200.578 267.168H198.5L196.941 262.705H190.187L188.605 267.168H186.551ZM190.825 260.91H196.304L193.588 253.141L190.825 260.91Z" fill="#6226FB"/>
<rect x="227.059" y="236.215" width="125.509" height="43.9051" fill="#F8F6FE"/>
<rect x="227.059" y="236.215" width="125.509" height="43.9051" stroke="#6226FB" stroke-width="0.7741"/>
<path d="M248.375 267.168H246.321V250.638H248.375V258.501L255.578 250.638H258.152L252.083 257.226L258.577 267.168H256.239L250.689 258.738L248.375 261.241V267.168ZM267.866 267.357C266.464 267.357 265.229 267.003 264.158 266.294C263.088 265.586 262.253 264.602 261.655 263.342C261.057 262.067 260.758 260.587 260.758 258.903C260.758 257.218 261.057 255.746 261.655 254.487C262.253 253.212 263.088 252.22 264.158 251.511C265.229 250.803 266.464 250.449 267.866 250.449C269.251 250.449 270.463 250.803 271.502 251.511C272.557 252.22 273.376 253.212 273.958 254.487C274.541 255.746 274.832 257.218 274.832 258.903C274.832 260.587 274.541 262.067 273.958 263.342C273.376 264.602 272.557 265.586 271.502 266.294C270.463 267.003 269.251 267.357 267.866 267.357ZM267.842 265.539C268.818 265.539 269.676 265.263 270.416 264.712C271.156 264.145 271.731 263.366 272.14 262.374C272.549 261.382 272.754 260.225 272.754 258.903C272.754 257.58 272.549 256.423 272.14 255.431C271.731 254.424 271.156 253.645 270.416 253.094C269.676 252.543 268.818 252.267 267.842 252.267C266.85 252.267 265.976 252.543 265.221 253.094C264.481 253.645 263.898 254.424 263.473 255.431C263.048 256.423 262.836 257.58 262.836 258.903C262.836 260.225 263.048 261.382 263.473 262.374C263.898 263.366 264.481 264.145 265.221 264.712C265.976 265.263 266.85 265.539 267.842 265.539ZM282.597 267.168V252.456H277.355V250.638H289.87V252.456H284.628V267.168H282.597ZM294.253 267.168V250.638H296.284V265.35H304.525V267.168H294.253ZM308.559 267.168V265.35H311.487V252.456H308.559V250.638H316.423V252.456H313.518V265.35H316.423V267.168H308.559ZM321.239 267.168V250.638H323.529L331.18 263.886V250.638H333.164V267.168H330.873L323.246 253.944V267.168H321.239Z" fill="#6226FB"/>
<rect x="360.435" y="236.215" width="111.509" height="43.9051" fill="#F8F6FE"/>
<rect x="360.435" y="236.215" width="111.509" height="43.9051" stroke="#6226FB" stroke-width="0.7741"/>
<path d="M380.287 267.168V250.638H382.318V265.35H390.559V267.168H380.287ZM400.365 267.357C398.964 267.357 397.728 267.003 396.658 266.294C395.587 265.586 394.753 264.602 394.155 263.342C393.556 262.067 393.257 260.587 393.257 258.903C393.257 257.218 393.556 255.746 394.155 254.487C394.753 253.212 395.587 252.22 396.658 251.511C397.728 250.803 398.964 250.449 400.365 250.449C401.751 250.449 402.963 250.803 404.002 251.511C405.057 252.22 405.875 253.212 406.458 254.487C407.04 255.746 407.332 257.218 407.332 258.903C407.332 260.587 407.04 262.067 406.458 263.342C405.875 264.602 405.057 265.586 404.002 266.294C402.963 267.003 401.751 267.357 400.365 267.357ZM400.342 265.539C401.318 265.539 402.176 265.263 402.916 264.712C403.656 264.145 404.23 263.366 404.639 262.374C405.049 261.382 405.253 260.225 405.253 258.903C405.253 257.58 405.049 256.423 404.639 255.431C404.23 254.424 403.656 253.645 402.916 253.094C402.176 252.543 401.318 252.267 400.342 252.267C399.35 252.267 398.476 252.543 397.72 253.094C396.98 253.645 396.398 254.424 395.973 255.431C395.548 256.423 395.335 257.58 395.335 258.903C395.335 260.225 395.548 261.382 395.973 262.374C396.398 263.366 396.98 264.145 397.72 264.712C398.476 265.263 399.35 265.539 400.342 265.539ZM417.426 267.357C416.119 267.357 414.938 267.026 413.883 266.365C412.844 265.688 412.018 264.72 411.404 263.46C410.806 262.201 410.507 260.674 410.507 258.879C410.507 257.085 410.814 255.565 411.428 254.322C412.057 253.062 412.915 252.102 414.002 251.441C415.104 250.779 416.355 250.449 417.756 250.449C418.953 250.449 420 250.669 420.897 251.11C421.794 251.551 422.519 252.173 423.07 252.976C423.636 253.763 423.983 254.692 424.109 255.762H422.007C421.834 254.692 421.377 253.841 420.637 253.212C419.913 252.582 418.953 252.267 417.756 252.267C416.182 252.267 414.923 252.85 413.978 254.015C413.033 255.18 412.561 256.817 412.561 258.926C412.561 261.005 413.025 262.634 413.954 263.815C414.883 264.98 416.119 265.562 417.662 265.562C418.512 265.562 419.268 265.397 419.929 265.066C420.606 264.72 421.133 264.263 421.511 263.697C421.905 263.13 422.101 262.508 422.101 261.831C422.101 260.886 421.661 260.414 420.779 260.414H417.756V258.667H421.228C422.125 258.667 422.826 258.919 423.329 259.422C423.833 259.91 424.085 260.603 424.085 261.5V267.168H422.219V264.759C422.046 265.121 421.747 265.507 421.322 265.916C420.913 266.31 420.385 266.648 419.74 266.932C419.094 267.215 418.323 267.357 417.426 267.357ZM435.888 267.168V263.035H427.079V261.217L435.534 250.638H437.919V261.217H440.493V263.035H437.919V267.168H435.888ZM429.205 261.217H435.888V252.857L429.205 261.217ZM443.516 267.168V265.35H447.625C448.239 265.35 448.719 265.153 449.066 264.759C449.412 264.35 449.585 263.783 449.585 263.059V250.638H451.616V263.13C451.616 264.405 451.278 265.397 450.601 266.105C449.94 266.814 449.026 267.168 447.861 267.168H443.516Z" fill="#6226FB"/>
<rect x="479.81" y="236.215" width="132.509" height="43.9051" fill="#F8F6FE"/>
<rect x="479.81" y="236.215" width="132.509" height="43.9051" stroke="#6226FB" stroke-width="0.7741"/>
<path d="M499.662 267.168V250.638H501.693V265.35H509.934V267.168H499.662ZM519.74 267.357C518.339 267.357 517.103 267.003 516.033 266.294C514.962 265.586 514.128 264.602 513.53 263.342C512.931 262.067 512.632 260.587 512.632 258.903C512.632 257.218 512.931 255.746 513.53 254.487C514.128 253.212 514.962 252.22 516.033 251.511C517.103 250.803 518.339 250.449 519.74 250.449C521.126 250.449 522.338 250.803 523.377 251.511C524.432 252.22 525.25 253.212 525.833 254.487C526.415 255.746 526.707 257.218 526.707 258.903C526.707 260.587 526.415 262.067 525.833 263.342C525.25 264.602 524.432 265.586 523.377 266.294C522.338 267.003 521.126 267.357 519.74 267.357ZM519.717 265.539C520.693 265.539 521.551 265.263 522.291 264.712C523.031 264.145 523.605 263.366 524.014 262.374C524.424 261.382 524.628 260.225 524.628 258.903C524.628 257.58 524.424 256.423 524.014 255.431C523.605 254.424 523.031 253.645 522.291 253.094C521.551 252.543 520.693 252.267 519.717 252.267C518.725 252.267 517.851 252.543 517.095 253.094C516.355 253.645 515.773 254.424 515.348 255.431C514.923 256.423 514.71 257.58 514.71 258.903C514.71 260.225 514.923 261.382 515.348 262.374C515.773 263.366 516.355 264.145 517.095 264.712C517.851 265.263 518.725 265.539 519.717 265.539ZM530.496 267.168V250.638H533.07L537.273 264.004L541.476 250.638H544.05V267.168H542.138V254.274L538.099 267.168H536.446L532.408 254.274V267.168H530.496ZM548.696 267.168V250.638H554.576C556.135 250.638 557.363 251.008 558.26 251.748C559.157 252.472 559.606 253.44 559.606 254.652C559.606 255.534 559.401 256.266 558.992 256.848C558.583 257.415 558.055 257.84 557.41 258.124C558.276 258.407 558.984 258.895 559.535 259.588C560.086 260.265 560.362 261.186 560.362 262.351C560.362 263.83 559.881 265.003 558.921 265.869C557.977 266.735 556.654 267.168 554.954 267.168H548.696ZM550.703 265.35H554.6C555.812 265.35 556.733 265.09 557.363 264.57C558.008 264.051 558.331 263.303 558.331 262.327C558.331 261.335 558.008 260.579 557.363 260.06C556.733 259.54 555.812 259.281 554.6 259.281H550.703V265.35ZM550.703 257.486H554.505C555.513 257.486 556.276 257.273 556.796 256.848C557.331 256.423 557.599 255.786 557.599 254.936C557.599 254.085 557.331 253.456 556.796 253.046C556.276 252.621 555.521 252.409 554.529 252.409H550.703V257.486ZM570.68 267.357C569.278 267.357 568.043 267.003 566.972 266.294C565.902 265.586 565.067 264.602 564.469 263.342C563.871 262.067 563.572 260.587 563.572 258.903C563.572 257.218 563.871 255.746 564.469 254.487C565.067 253.212 565.902 252.22 566.972 251.511C568.043 250.803 569.278 250.449 570.68 250.449C572.065 250.449 573.277 250.803 574.316 251.511C575.371 252.22 576.19 253.212 576.772 254.487C577.355 255.746 577.646 257.218 577.646 258.903C577.646 260.587 577.355 262.067 576.772 263.342C576.19 264.602 575.371 265.586 574.316 266.294C573.277 267.003 572.065 267.357 570.68 267.357ZM570.656 265.539C571.632 265.539 572.49 265.263 573.23 264.712C573.97 264.145 574.545 263.366 574.954 262.374C575.363 261.382 575.568 260.225 575.568 258.903C575.568 257.58 575.363 256.423 574.954 255.431C574.545 254.424 573.97 253.645 573.23 253.094C572.49 252.543 571.632 252.267 570.656 252.267C569.664 252.267 568.79 252.543 568.035 253.094C567.295 253.645 566.712 254.424 566.287 255.431C565.862 256.423 565.65 257.58 565.65 258.903C565.65 260.225 565.862 261.382 566.287 262.374C566.712 263.366 567.295 264.145 568.035 264.712C568.79 265.263 569.664 265.539 570.656 265.539ZM583.773 267.168H581.718V250.638H583.773V258.501L590.975 250.638H593.549L587.48 257.226L593.974 267.168H591.636L586.087 258.738L583.773 261.241V267.168Z" fill="#6226FB"/>
</g>
<defs>
<filter id="filter0_d_195_7019" x="22.6966" y="70.6724" width="672.611" height="279.27" filterUnits="userSpaceOnUse" color-interpolation-filters="sRGB">
<feFlood flood-opacity="0" result="BackgroundImageFix"/>
<feColorMatrix in="SourceAlpha" type="matrix" values="0 0 0 0 0 0 0 0 0 0 0 0 0 0 0 0 0 0 127 0" result="hardAlpha"/>
<feOffset dy="3.91034"/>
<feGaussianBlur stdDeviation="17.1078"/>
<feComposite in2="hardAlpha" operator="out"/>
<feColorMatrix type="matrix" values="0 0 0 0 0.0509804 0 0 0 0 0.0862745 0 0 0 0 0.109804 0 0 0 0.03 0"/>
<feBlend mode="normal" in2="BackgroundImageFix" result="effect1_dropShadow_195_7019"/>
<feBlend mode="normal" in="SourceGraphic" in2="effect1_dropShadow_195_7019" result="shape"/>
</filter>
</defs>
</svg>
